<?xml version="1.0" encoding="utf-8"?>
<svg viewBox="0 0 500 500" xmlns="http://www.w3.org/2000/svg">
  <path d="M 449.918 250.002 C 449.918 96.095 283.321 -0.095 150.042 76.856 C 88.188 112.57 50.084 178.573 50.084 250.002 C 50.084 403.906 216.681 500.096 349.959 423.144 C 411.814 387.43 449.918 321.428 449.918 250.002 Z M 3.949 250.002 C 3.949 60.579 208.992 -57.811 373.026 36.901 C 449.155 80.855 496.052 162.09 496.052 250.002 C 496.052 439.421 291.01 557.812 126.975 463.1 C 50.847 419.145 3.949 337.911 3.949 250.002 Z" style="fill: rgb(239, 68, 68);"/>
  <path d="M 250.001 292.948 C 230.314 292.948 218.009 312.213 227.852 327.624 C 232.421 334.776 240.864 339.182 250.001 339.182 C 269.688 339.182 281.992 319.918 272.148 304.507 C 267.58 297.355 259.138 292.948 250.001 292.948 Z M 250.001 226.9 C 230.314 226.9 218.009 246.164 227.852 261.575 C 232.421 268.728 240.864 273.134 250.001 273.134 C 269.688 273.134 281.992 253.87 272.148 238.458 C 267.58 231.306 259.138 226.9 250.001 226.9 Z M 275.575 183.969 C 275.575 166.174 254.263 155.052 237.213 163.95 C 229.301 168.079 224.426 175.71 224.426 183.969 C 224.426 201.764 245.738 212.887 262.788 203.989 C 270.7 199.859 275.575 192.228 275.575 183.969 Z" style="fill: rgb(231, 229, 228);"/>
</svg>